<svg width="25" height="26" viewBox="0 0 25 26" fill="none" xmlns="http://www.w3.org/2000/svg">
<rect width="24.9863" height="24.9863" transform="translate(0 0.505859)" fill="black"/>
<path d="M12.4941 3.1377C17.9414 3.1377 22.3574 7.55377 22.3574 13.001C22.3574 18.4482 17.9414 22.8643 12.4941 22.8643C7.04693 22.8642 2.63086 18.4482 2.63086 13.001C2.63093 7.55381 7.04697 3.13776 12.4941 3.1377ZM12.5391 3.94922C7.51464 3.94922 3.44141 8.02246 3.44141 13.0469C3.44163 18.0711 7.51478 22.1436 12.5391 22.1436C17.5633 22.1435 21.6365 18.0711 21.6367 13.0469C21.6367 8.02248 17.5634 3.94926 12.5391 3.94922Z" fill="white"/>
<path d="M7.58631 18.1347H5.91993L5.46956 16.9187L6.7306 15.9729L6.28023 14.892L7.18097 12.9104V11.6493L7.58631 11.289L7.18097 11.1539L7.45119 10.7936V10.5684L7.13593 10.7936L7.18097 8.04636L7.58631 8.36162L7.67638 8.04636L7.90157 8.36162H8.71224L9.0275 8.63184L8.84735 8.67688V8.76695H9.34276L10.4236 9.21733L10.1534 9.57762H8.80231V10.9738L9.34276 12.415L9.74809 12.7302L9.8832 10.7486H11.9549L12.3602 11.1539L12.7656 10.7486H14.7923L14.9724 12.7302L15.4678 12.1898L16.0083 10.7486L15.738 9.89288H14.9274L14.6571 9.12725L15.738 8.85703L15.8731 8.49673H16.4586L16.5937 7.86621L17.5846 8.13643L18.17 8.67688H17.7197L18.17 9.48755H17.8097L18.17 9.89288V10.7486L17.7197 10.3433L18.0349 10.9738L17.2693 11.7844L18.4853 14.847L18.0349 16.063L19.296 16.8737V17.0988L18.8006 18.1347H17.4945V17.6843H17.9449L18.17 17.1889L16.864 16.2431V16.063L17.1792 15.2523L15.738 13.4058L16.1434 12.7753L15.1075 13.4058L15.1976 14.4867H12.9457L12.4503 15.0271L11.7748 14.4867H9.65802V13.4058L8.57712 12.7753L9.07253 13.3157L7.58631 15.2523V15.3874L7.90157 16.2431L6.59549 17.1889L6.82067 17.6843L7.58631 17.8645V18.1347Z" fill="white"/>
<path d="M9.56794 15.4325L8.80231 14.3966L8.03668 15.2523V15.4325L8.44201 15.8828V16.108L7.85653 17.279V17.5042L8.21683 18.1347L9.92824 18.1797L10.0183 17.8645L9.0275 17.6843L8.80231 17.4591V17.1889L9.56794 15.7027V15.4325Z" fill="white"/>
<path d="M16.6388 15.2523L16.0083 14.3966L15.1976 15.4325V15.6576L16.0083 17.3691L15.9182 17.5942H15.1075V18.1347H16.5487L16.909 17.4141V17.1889L16.3686 16.063V15.8828L16.6388 15.5225V15.2523Z" fill="white"/>
<path d="M5.46956 9.21733L5.1543 10.6585L5.51459 10.7036L5.46956 13.3157H5.91993L6.19015 14.3966L6.77564 12.8203L6.7306 10.5684L5.46956 9.21733Z" fill="white"/>
<path d="M19.9265 11.289V12.46L19.1158 11.244H18.9357L18.3052 11.9196V12.1898L18.9357 13.5409V13.8562L18.6655 14.3966H18.5754L17.7197 11.9196V11.7844L19.296 10.1181H19.3861L19.9265 11.289Z" fill="white"/>
</svg>
